<svg width="135" height="157" viewBox="0 0 135 157" fill="none" xmlns="http://www.w3.org/2000/svg">
<g filter="url(#filter0_d_431_2194)">
<path d="M21.4863 63.3672C21.4863 63.3672 28.1504 74.8566 30.5919 80.5828C33.3487 87.049 41.4542 90.6177 57.5198 86.4308C73.5854 82.2438 78.9174 75.1706 78.1681 68.1836C77.5042 61.9941 77.7127 48.7136 77.7127 48.7136L21.4863 63.3672Z" fill="#BBDDF5"/>
<path d="M21.7422 63.5176C22.9699 66.0128 24.3668 67.4386 25.547 66.2072C26.7273 64.9758 29.0065 64.8599 28.8058 66.8013C28.6208 68.5816 31.5178 68.621 32.4193 67.3746C33.2839 66.1816 35.2855 64.593 36.0354 66.5753C36.7319 68.4146 39.1869 68.3175 39.881 66.6562C40.5925 64.9558 43.7137 64.7474 44.7052 66.3366C45.6967 67.9257 48.5401 66.9261 49.0337 65.4972C49.501 64.1445 50.0768 63.1815 51.3722 62.8439L51.3604 62.7985C52.6579 62.4603 53.6402 63.0657 54.7083 64.0183C55.836 65.0223 58.8061 64.5092 58.8959 62.6383C58.9856 60.7673 61.8115 59.4258 63.2625 60.5626C64.6812 61.6732 66.8692 60.5603 66.5793 58.6151C66.2663 56.5188 68.7881 56.9263 70.1256 57.5477C71.5208 58.1956 74.0301 56.7472 72.9997 55.2836C71.8748 53.6877 73.9228 52.6759 75.5539 53.1745C77.185 53.6732 77.7084 51.747 77.562 48.97L21.7422 63.5176Z" fill="#662113"/>
<path d="M80.4001 41.3009C77.6277 30.6633 60.8245 25.8347 42.871 30.5137C24.9153 35.1933 12.6084 47.6084 15.3807 58.246C17.6177 66.8292 38.2428 66.216 51.2895 62.8158C64.3362 59.4156 82.6719 50.0181 80.4001 41.3009Z" fill="#C1694F"/>
<path d="M57.2791 85.5037C56.6822 85.6593 56.0716 85.3011 55.916 84.7042L51.0431 66.0068C50.8876 65.4099 51.2458 64.7993 51.8426 64.6437C52.4395 64.4882 53.0501 64.8463 53.2057 65.4432L58.0786 84.1406C58.2341 84.7375 57.876 85.3482 57.2791 85.5037ZM42.0775 86.5371C41.5412 86.6769 40.9725 86.4002 40.7592 85.8738L34.0309 69.1934C33.8008 68.6206 34.0767 67.969 34.649 67.7367C35.2141 67.4948 35.8712 67.7831 36.1035 68.3553L42.8317 85.0358C43.0618 85.6086 42.7859 86.2602 42.2137 86.4924C42.1699 86.5108 42.1229 86.5253 42.0775 86.5371ZM49.5023 86.8561C48.9466 87.001 48.3619 86.6984 48.1667 86.1442L41.8332 68.1161C41.629 67.5365 41.9354 66.8955 42.5177 66.6929C43.1173 66.4858 43.7383 66.7951 43.943 67.3769L50.2765 85.4049C50.4807 85.9845 50.1743 86.6256 49.592 86.8281L49.5023 86.8561ZM34.9018 83.6383C34.5233 83.7369 34.1167 83.5588 33.9385 83.1942L26.5026 67.9545C26.2995 67.5386 26.4718 67.0388 26.8877 66.8357C27.2888 66.6203 27.8034 66.8049 28.0087 67.2202L35.4445 82.4599C35.6476 82.8758 35.4754 83.3756 35.0595 83.5787C35.0066 83.6063 34.9537 83.6248 34.9018 83.6383ZM70.819 78.7856C70.7671 78.7992 70.7141 78.8084 70.6605 78.8154C70.0482 78.8849 69.4941 78.4427 69.4246 77.8304L67.4333 60.1764C67.3632 59.5619 67.8164 59.0234 68.4184 58.9404C69.0307 58.8709 69.5848 59.3131 69.6543 59.9255L71.6456 77.5795C71.708 78.1383 71.3467 78.6481 70.819 78.7856ZM64.8543 82.8551L64.7624 82.8745C64.1553 82.9819 63.575 82.5719 63.4703 81.9664L60.1989 63.1403C60.091 62.531 60.5633 61.9507 61.107 61.8482C61.7141 61.7408 62.2944 62.1508 62.3991 62.7563L65.6704 81.5824C65.7727 82.1608 65.4101 82.7103 64.8543 82.8551ZM76.1021 72.9955C76.0523 73.0084 75.9993 73.0176 75.9467 73.0198C75.4836 73.0504 75.0855 72.7015 75.0554 72.2405L73.95 55.2563C73.92 54.7954 74.2813 54.3917 74.7293 54.365C75.1924 54.3344 75.5905 54.6833 75.6206 55.1443L76.726 72.1285C76.7539 72.5369 76.4848 72.8957 76.1021 72.9955Z" fill="#88C9F9"/>
<path d="M34.9121 9.32381C34.9121 9.32381 37.9076 11.1851 40.2734 10.6217C45.2057 9.44941 50.4324 11.011 51.6673 15.7491C51.6673 15.7491 63.0445 12.784 66.0723 22.7892C66.0723 22.7892 71.8393 21.3902 75.7619 31.0537C78.6915 38.2716 73.8288 50.5572 49.7752 56.7128C28.5687 62.1403 15.7703 57.4366 14.5714 47.0056C13.4175 36.96 21.3535 34.4461 21.3535 34.4461C21.3535 34.4461 16.685 22.1687 32.1802 18.1327C32.1802 18.1327 32.4331 12.6696 34.9121 9.32381Z" fill="#FFE8B6"/>
<path d="M42.9958 31.4994C48.7206 27.4485 53.4002 21.5939 51.6692 15.7495C51.1856 13.894 50.0783 12.5429 48.6291 11.6343C51.6022 17.3443 44.1152 26.6673 34.1326 30.4375C21.6416 35.1547 21.1367 27.1917 21.1367 27.1917L21.1255 27.2108C20.0817 31.0302 21.3554 34.4464 21.3554 34.4464C24.6555 39.0897 34.949 37.1946 42.9958 31.4994Z" fill="#FFCC4D"/>
<path d="M66.0722 22.7902C65.9786 22.4843 65.8563 22.2275 65.7483 21.9462C65.1159 20.5475 63.9199 18.9447 62.8695 17.7589C62.3093 17.2929 61.7233 16.9052 61.1115 16.5958C66.0042 25.5423 54.5757 40.8139 41.5016 47.0687C24.4598 55.2191 14.5718 47.0087 14.5718 47.0087C15.1933 52.424 18.9686 56.2761 25.3985 57.9882C49.8646 61.24 68.8324 32.5926 66.0722 22.7902Z" fill="#FFCC4D"/>
<path d="M25.1395 44.6909L23.4952 48.8469C23.0426 49.9902 21.737 50.5545 20.5937 50.1019C19.4503 49.6493 18.8861 48.3437 19.3387 47.2004L20.983 43.0444C21.4356 41.9011 22.7412 41.3368 23.8845 41.7894C25.0278 42.242 25.5921 43.5476 25.1395 44.6909Z" fill="#DD2E44"/>
<path d="M35.2567 28.1657L30.7906 28.362C29.5623 28.4166 28.5125 27.4546 28.4607 26.2279C28.4062 24.9997 29.3682 23.9499 30.5948 23.8981L35.0609 23.7018C36.2892 23.6473 37.339 24.6092 37.3908 25.8359C37.4453 27.0642 36.4855 28.1134 35.2567 28.1657Z" fill="#55ACEE"/>
<path d="M41.8657 40.2679L45.5556 42.7912C46.5702 43.4852 46.833 44.8832 46.139 45.8978C45.445 46.9124 44.0469 47.1751 43.0324 46.4811L39.3425 43.9578C38.3279 43.2638 38.0652 41.8658 38.7592 40.8512C39.4532 39.8367 40.8512 39.5739 41.8657 40.2679Z" fill="#77B255"/>
<path d="M57.5314 30.0101L53.8838 32.5935C52.8794 33.3033 51.4774 33.0636 50.7682 32.0614C50.0584 31.057 50.2981 29.6551 51.3004 28.9459L54.948 26.3624C55.9524 25.6526 57.3543 25.8923 58.0636 26.8946C58.775 27.8962 58.5353 29.2982 57.5314 30.0101Z" fill="#F4900C"/>
<path d="M71.9316 32.1506L70.7452 36.4598C70.4187 37.6441 69.1818 38.3476 67.9974 38.0211C66.813 37.6947 66.1096 36.4577 66.436 35.2734L67.6224 30.9642C67.9488 29.7799 69.1858 29.0764 70.3702 29.4028C71.5546 29.7293 72.2574 30.9641 71.9316 32.1506Z" fill="#AA8DD8"/>
</g>
<defs>
<filter id="filter0_d_431_2194" x="0.457031" y="9.32422" width="134.135" height="146.912" filterUnits="userSpaceOnUse" color-interpolation-filters="sRGB">
<feFlood flood-opacity="0" result="BackgroundImageFix"/>
<feColorMatrix in="SourceAlpha" type="matrix" values="0 0 0 0 0 0 0 0 0 0 0 0 0 0 0 0 0 0 127 0" result="hardAlpha"/>
<feOffset dx="20" dy="34"/>
<feGaussianBlur stdDeviation="17"/>
<feComposite in2="hardAlpha" operator="out"/>
<feColorMatrix type="matrix" values="0 0 0 0 0 0 0 0 0 0 0 0 0 0 0 0 0 0 0.12 0"/>
<feBlend mode="normal" in2="BackgroundImageFix" result="effect1_dropShadow_431_2194"/>
<feBlend mode="normal" in="SourceGraphic" in2="effect1_dropShadow_431_2194" result="shape"/>
</filter>
</defs>
</svg>
