<svg width="114" height="120" viewBox="0 0 114 120" fill="none" xmlns="http://www.w3.org/2000/svg">
<path d="M113.466 63.2671C113.466 56.3858 112.241 49.7881 109.995 43.6843C108.46 61.6686 98.872 70.9061 88.8537 66.6044C79.4694 62.573 85.7934 46.858 86.2606 39.3593C87.0482 26.6478 86.2206 12.0974 63.1303 0C72.7248 18.3547 64.2416 29.758 55.3446 30.4522C45.473 31.2231 36.4325 21.969 39.7697 6.95144C28.9638 14.9141 28.6501 28.3164 31.984 36.9865C35.4614 46.0237 31.8438 53.5325 23.3639 54.3668C13.8862 55.3012 8.62006 44.2183 13.4757 26.5576C5.07259 36.4525 0 49.2675 0 63.2671C0 94.6004 25.3996 120 56.7329 120C88.0661 120 113.466 94.6004 113.466 63.2671Z" fill="#F4900C"/>
<path d="M91.4194 79.9493C91.9133 90.2413 82.8728 94.2761 78.0071 92.3271C70.9789 89.5138 72.8644 84.6815 71.0556 74.6698C69.2469 64.6582 62.2954 57.7067 52.0068 54.6465C59.5155 75.7811 47.8452 83.5702 41.7281 84.9619C35.4808 86.3835 29.2035 84.9585 28.486 71.5896C21.1975 78.8447 16.6855 88.8831 16.6855 99.976C16.6855 101.204 16.7623 102.412 16.8691 103.614C27.1144 113.739 41.1875 119.999 56.7323 119.999C72.2771 119.999 86.3502 113.739 96.5954 103.614C96.7022 102.412 96.779 101.204 96.779 99.976C96.779 92.6775 94.83 85.8395 91.4194 79.9493Z" fill="#FFCC4D"/>
</svg>
