<svg width="72" height="72" viewBox="0 0 72 72" fill="none" xmlns="http://www.w3.org/2000/svg">
<path d="M27 66H45C60 66 66 60 66 45V27C66 12 60 6 45 6H27C12 6 6 12 6 27V45C6 60 12 66 27 66Z" stroke="#008EFF" stroke-width="2" stroke-linecap="round" stroke-linejoin="round"/>
<path d="M26.9048 31.5238V46H28.9048V31.5238H26.9048ZM34.3333 46V38.7619H32.3333V46H34.3333ZM45 38.7619V46H47V38.7619H45ZM47 38.7619C47 34.7118 43.7168 31.4286 39.6667 31.4286V33.4286C42.6122 33.4286 45 35.8164 45 38.7619H47ZM34.3333 38.7619C34.3333 35.8164 36.7211 33.4286 39.6667 33.4286V31.4286C35.6166 31.4286 32.3333 34.7118 32.3333 38.7619H34.3333ZM32.3333 31.5238V46H34.3333V31.5238H32.3333ZM27 28H28.8095V26H27V28Z" fill="#008EFF"/>
</svg>
