<svg width="290" height="44" viewBox="0 0 290 44" fill="none" xmlns="http://www.w3.org/2000/svg">
<path d="M7.78786 26.6255V16.984C7.79145 16.7976 7.84749 16.6159 7.9495 16.4597C8.05151 16.3037 8.19541 16.1794 8.36472 16.1014L18.5447 11.0855C18.6764 11.0197 18.8214 10.9855 18.9689 10.9855C19.116 10.9855 19.2611 11.0197 19.3931 11.0855L29.8186 16.059C29.9221 16.1132 30.0372 16.1416 30.1537 16.1416C30.2706 16.1416 30.3857 16.1132 30.4888 16.059L32.8303 14.7604C32.9405 14.6967 33.0324 14.6052 33.0964 14.495C33.1601 14.3848 33.1943 14.2598 33.195 14.1324V8.91279C33.1943 8.77794 33.1556 8.64604 33.0837 8.53203C33.0116 8.41802 32.9092 8.32646 32.7877 8.26778L19.2994 1.70724C19.1966 1.65698 19.0833 1.63086 18.9689 1.63086C18.8541 1.63086 18.7408 1.65698 18.638 1.70724L0.551691 11.3825C0.436376 11.4441 0.339962 11.5358 0.272695 11.6479C0.205463 11.76 0.169949 11.8883 0.169949 12.0191V31.845C0.168822 31.9738 0.203001 32.1005 0.268825 32.2111C0.334649 32.322 0.429547 32.4124 0.543208 32.473L18.6039 42.2843C18.7116 42.3444 18.8327 42.3758 18.9559 42.3758C19.0794 42.3758 19.2005 42.3444 19.3082 42.2843L32.805 34.3403C32.9155 34.2791 33.0081 34.1897 33.0721 34.0805C33.1365 33.9714 33.17 33.8472 33.1696 33.7204V30.3258C33.1696 30.1952 33.1341 30.0667 33.0668 29.9548C32.9996 29.8425 32.9032 29.7509 32.7877 29.6893L29.6577 27.9916C29.5525 27.9332 29.4342 27.9022 29.3138 27.9022C29.1938 27.9022 29.0755 27.9332 28.9703 27.9916L19.41 33.2284C19.2656 33.3079 19.1037 33.3494 18.939 33.3494C18.7742 33.3494 18.6123 33.3079 18.4684 33.2284L8.28837 27.4742L8.34775 27.3637C8.21674 27.2901 8.10762 27.1828 8.03159 27.0532C7.95555 26.9233 7.91536 26.7758 7.91511 26.6255H7.78786Z" fill="white"/>
<path d="M23.44 25.1211C24.0658 24.1999 24.4051 23.1136 24.4153 21.9995C24.4196 21.2547 24.2774 20.5162 23.9958 19.8266C23.7145 19.1371 23.3002 18.5098 22.7761 17.9807C22.252 17.4517 21.6286 17.0313 20.9418 16.7437C20.2551 16.4561 19.5183 16.3069 18.7738 16.3047C17.6605 16.3047 16.5717 16.6345 15.6453 17.2524C14.7184 17.8704 13.9954 18.7488 13.5671 19.7773C13.1387 20.8055 13.0239 21.9376 13.2376 23.0312C13.4512 24.1245 13.9835 25.1302 14.7674 25.9215C15.5513 26.7128 16.5517 27.2542 17.6425 27.4777C18.7334 27.7012 19.8661 27.5967 20.8978 27.1774C21.9295 26.7579 22.8141 26.0426 23.44 25.1211Z" fill="white"/>
<path d="M59.4883 32.7394H64.0308V18.6929L70.8322 27.2408L77.642 18.6929V32.7394H82.1849V11.3613H78.1006L70.8322 20.5257L63.5725 11.3613H59.4883V32.7394Z" fill="white"/>
<path d="M91.8986 32.7394H96.4327V25.108L104.457 11.3613H99.1582L94.2249 20.5257H94.1059L89.1727 11.3613H83.8828L91.8986 25.108V32.7394Z" fill="white"/>
<path d="M121.133 25.8702C120.699 26.4532 120.181 26.9671 119.596 27.3948C118.293 28.3765 116.713 28.9136 115.087 28.9277C113.279 28.9277 111.544 28.2033 110.266 26.9132C108.987 25.6235 108.269 23.8741 108.269 22.05C108.269 20.2259 108.987 18.4768 110.266 17.1869C111.544 15.8971 113.279 15.1725 115.087 15.1725C116.667 15.184 118.199 15.7231 119.443 16.7057C120.015 17.1488 120.533 17.6575 120.988 18.2216L124.011 15.164C123.356 14.3761 122.602 13.6766 121.77 13.0827C119.819 11.6804 117.482 10.9314 115.087 10.9415C112.16 10.9415 109.352 12.1146 107.282 14.2027C105.212 16.2908 104.049 19.1228 104.049 22.0757C104.049 25.029 105.212 27.8608 107.282 29.9489C109.352 32.0373 112.16 33.2102 115.087 33.2102C116.821 33.2256 118.536 32.849 120.107 32.108C121.678 31.3667 123.064 30.2801 124.164 28.9277L121.133 25.8702Z" fill="white"/>
<path fill-rule="evenodd" clip-rule="evenodd" d="M136.928 33.0881C142.954 33.0881 147.84 28.1239 147.84 22.0001C147.84 15.8764 142.954 10.9121 136.928 10.9121C130.901 10.9121 126.016 15.8764 126.016 22.0001C126.016 28.1239 130.901 33.0881 136.928 33.0881ZM136.928 28.8641C140.621 28.8641 143.616 25.7911 143.616 22.0001C143.616 18.2092 140.621 15.1361 136.928 15.1361C133.234 15.1361 130.24 18.2092 130.24 22.0001C130.24 25.7911 133.234 28.8641 136.928 28.8641Z" fill="white"/>
<path d="M155.411 11.3613H150.877V32.7478H155.411V11.3613Z" fill="white"/>
<path d="M160.004 32.7394H164.538V19.4553L174.829 32.7394H178.913V11.3613H174.371V24.6455L164.088 11.3613H160.004V32.7394Z" fill="white"/>
<path d="M187.423 32.7394H191.957V15.6352H198.011V11.3613H181.369V15.6352H187.423V32.7394Z" fill="white"/>
<path d="M196.092 32.7835H200.94L202.749 27.9012H210.926L212.734 32.7835H217.583L209.406 11.3711H204.311L196.092 32.7835ZM204.269 23.773L206.774 16.7498H206.901L209.406 23.773H204.269Z" fill="white"/>
<path d="M224.112 11.3613H219.578V32.7478H224.112V11.3613Z" fill="white"/>
<path d="M228.705 32.7394H233.239V19.4553L243.531 32.7394H247.615V11.3613H243.072V24.6455L232.789 11.3613H228.705V32.7394Z" fill="white"/>
<path d="M252.184 32.7394H268.223V28.4654H256.726V23.8831H265.498V19.7636H256.726V15.6352H267.917V11.3613H252.184V32.7394Z" fill="white"/>
<path d="M275.984 21.4425V15.6525H280.671C281.435 15.6525 282.167 15.9584 282.707 16.5029C283.246 17.0474 283.55 17.786 283.55 18.556C283.55 19.3259 283.246 20.0644 282.707 20.609C282.167 21.1535 281.435 21.4594 280.671 21.4594L275.984 21.4425ZM271.441 32.7822H275.984V25.7591H280.23L284.008 32.7822H288.992L284.603 24.8425C285.289 24.5436 285.907 24.1064 286.42 23.558C287.039 22.8945 287.519 22.112 287.832 21.257C288.144 20.4016 288.282 19.4917 288.237 18.5817C288.237 14.2992 285.367 11.4043 280.824 11.4043H271.441V32.7822Z" fill="white"/>
</svg>
