<svg width="342" height="51" viewBox="0 0 342 51" fill="none" xmlns="http://www.w3.org/2000/svg">
<path d="M9.20741 30.8617V19.6864C9.21165 19.4702 9.27789 19.2596 9.39846 19.0786C9.51904 18.8977 9.68912 18.7538 9.88924 18.6633L21.9219 12.8494C22.0775 12.7732 22.2489 12.7335 22.4232 12.7335C22.5971 12.7335 22.7685 12.7732 22.9246 12.8494L35.2474 18.6141C35.3697 18.677 35.5057 18.7099 35.6435 18.7099C35.7816 18.7099 35.9176 18.677 36.0396 18.6141L38.8072 17.109C38.9374 17.0351 39.046 16.9291 39.1217 16.8014C39.197 16.6736 39.2374 16.5287 39.2382 16.381V10.331C39.2374 10.1747 39.1916 10.0219 39.1067 9.88971C39.0214 9.75756 38.9004 9.65144 38.7568 9.58342L22.8139 1.97916C22.6924 1.9209 22.5584 1.89062 22.4232 1.89062C22.2876 1.89062 22.1536 1.9209 22.0321 1.97916L0.65437 13.1937C0.51807 13.265 0.40411 13.3713 0.324601 13.5013C0.245134 13.6312 0.203157 13.7799 0.203157 13.9315V36.9115C0.201825 37.0609 0.242224 37.2078 0.320027 37.3359C0.39783 37.4644 0.509998 37.5692 0.644343 37.6394L21.9918 49.0116C22.1191 49.0814 22.2622 49.1177 22.4078 49.1177C22.5539 49.1177 22.697 49.0814 22.8243 49.0116L38.7772 39.8039C38.9079 39.7329 39.0173 39.6292 39.093 39.5028C39.1691 39.3763 39.2087 39.2323 39.2083 39.0854V35.1506C39.2083 34.9993 39.1662 34.8503 39.0868 34.7206C39.0073 34.5904 38.8933 34.4844 38.7568 34.413L35.0572 32.4452C34.9328 32.3774 34.793 32.3415 34.6507 32.3415C34.5089 32.3415 34.3691 32.3774 34.2447 32.4452L22.9445 38.515C22.7739 38.6072 22.5826 38.6553 22.3878 38.6553C22.1931 38.6553 22.0017 38.6072 21.8316 38.515L9.799 31.8454L9.86919 31.7173C9.71433 31.632 9.58535 31.5076 9.49549 31.3574C9.40562 31.2069 9.3581 31.0359 9.35781 30.8617H9.20741Z" fill="#9C9C9C"/>
<path d="M27.7063 29.1174C28.4461 28.0497 28.8471 26.7906 28.8592 25.4993C28.8642 24.6359 28.6961 23.78 28.3633 22.9807C28.0308 22.1814 27.5411 21.4543 26.9216 20.8411C26.3021 20.2279 25.5653 19.7406 24.7535 19.4073C23.9418 19.0739 23.071 18.901 22.191 18.8984C20.875 18.8985 19.5882 19.2807 18.4931 19.9969C17.3976 20.7132 16.543 21.7314 16.0367 22.9236C15.5304 24.1153 15.3947 25.4275 15.6473 26.6951C15.8998 27.9624 16.5289 29.128 17.4555 30.0452C18.382 30.9624 19.5645 31.5899 20.8538 31.849C22.1432 32.108 23.4821 31.9869 24.7015 31.5009C25.921 31.0146 26.9666 30.1856 27.7063 29.1174Z" fill="#9C9C9C"/>
<path d="M70.3125 37.9471H75.6817V21.6659L83.7208 31.5737L91.7699 21.6659V37.9471H97.1395V13.168H92.312L83.7208 23.7903L75.14 13.168H70.3125V37.9471Z" fill="#9C9C9C"/>
<path d="M108.623 37.9471H113.982V29.1016L123.466 13.168H117.204L111.373 23.7903H111.232L105.401 13.168H99.1484L108.623 29.1016V37.9471Z" fill="#9C9C9C"/>
<path d="M143.177 29.9855C142.664 30.6612 142.052 31.2569 141.361 31.7526C139.821 32.8905 137.954 33.5131 136.032 33.5294C133.894 33.5294 131.844 32.6898 130.333 31.1944C128.821 29.6995 127.973 27.6718 127.973 25.5575C127.973 23.4432 128.821 21.4158 130.333 19.9208C131.844 18.4258 133.894 17.5859 136.032 17.5859C137.899 17.5992 139.71 18.2241 141.18 19.363C141.856 19.8766 142.469 20.4662 143.007 21.1201L146.579 17.576C145.805 16.6628 144.914 15.852 143.93 15.1636C141.625 13.5382 138.862 12.67 136.032 12.6818C132.571 12.6818 129.252 14.0415 126.806 16.4618C124.359 18.8821 122.984 22.1646 122.984 25.5873C122.984 29.0104 124.359 32.2928 126.806 34.713C129.252 37.1337 132.571 38.4931 136.032 38.4931C138.081 38.5111 140.109 38.0745 141.965 37.2157C143.822 36.3564 145.46 35.097 146.76 33.5294L143.177 29.9855Z" fill="#9C9C9C"/>
<path fill-rule="evenodd" clip-rule="evenodd" d="M161.843 38.3524C168.966 38.3524 174.741 32.5984 174.741 25.5004C174.741 18.4025 168.966 12.6484 161.843 12.6484C154.72 12.6484 148.945 18.4025 148.945 25.5004C148.945 32.5984 154.72 38.3524 161.843 38.3524ZM161.843 33.4564C166.209 33.4564 169.748 29.8946 169.748 25.5004C169.748 21.1064 166.209 17.5444 161.843 17.5444C157.477 17.5444 153.938 21.1064 153.938 25.5004C153.938 29.8946 157.477 33.4564 161.843 33.4564Z" fill="#9C9C9C"/>
<path d="M183.696 13.168H178.336V37.9569H183.696V13.168Z" fill="#9C9C9C"/>
<path d="M189.125 37.9471H194.484V22.5496L206.649 37.9471H211.476V13.168H206.106V28.5655L193.953 13.168H189.125V37.9471Z" fill="#9C9C9C"/>
<path d="M221.531 37.9471H226.89V18.1218H234.046V13.168H214.375V18.1218H221.531V37.9471Z" fill="#9C9C9C"/>
<path d="M231.773 37.9986H237.504L239.642 32.3396H249.307L251.445 37.9986H257.175L247.51 13.1797H241.489L231.773 37.9986ZM241.438 27.5546L244.399 19.4141H244.55L247.51 27.5546H241.438Z" fill="#9C9C9C"/>
<path d="M264.898 13.168H259.539V37.9569H264.898V13.168Z" fill="#9C9C9C"/>
<path d="M270.328 37.9471H275.687V22.5496L287.852 37.9471H292.679V13.168H287.31V28.5655L275.156 13.168H270.328V37.9471Z" fill="#9C9C9C"/>
<path d="M298.078 37.9471H317.037V32.9931H303.447V27.6818H313.815V22.907H303.447V18.1218H316.675V13.168H298.078V37.9471Z" fill="#9C9C9C"/>
<path d="M326.206 24.8539V18.1428H331.745C332.648 18.1428 333.513 18.4974 334.151 19.1285C334.789 19.7596 335.148 20.6157 335.148 21.5082C335.148 22.4006 334.789 23.2566 334.151 23.8878C333.513 24.519 332.648 24.8735 331.745 24.8735L326.206 24.8539ZM320.836 37.9977H326.206V29.8572H331.224L335.69 37.9977H341.581L336.392 28.7948C337.203 28.4484 337.934 27.9417 338.54 27.306C339.272 26.5369 339.84 25.6299 340.209 24.6389C340.578 23.6475 340.741 22.5928 340.688 21.538C340.688 16.5743 337.296 13.2188 331.926 13.2188H320.836V37.9977Z" fill="#9C9C9C"/>
</svg>
