<svg width="135" height="140" viewBox="0 0 135 140" fill="none" xmlns="http://www.w3.org/2000/svg">
<path d="M57.5226 122.191C88.3013 127.949 117.92 107.666 123.679 76.8872C129.437 46.1085 109.154 16.4894 78.3753 10.731C47.5966 4.97273 17.9775 25.2558 12.2192 56.0345C6.46083 86.8132 26.7439 116.432 57.5226 122.191Z" fill="#FFCB4C"/>
<path d="M54.0893 77.5023C53.6851 77.0331 53.4116 76.4459 53.3511 75.7899C53.1939 74.1997 54.3403 72.8602 55.9114 72.8047C71.3814 72.2347 79.9146 81.92 80.2749 82.3335C81.3461 83.5721 81.2614 85.3851 80.103 86.3899C78.9459 87.388 77.1427 87.1966 76.0736 85.9651C75.7645 85.6223 68.982 78.1137 56.481 78.5741C55.5454 78.606 54.6747 78.1819 54.0893 77.5023Z" fill="#65471B"/>
<path d="M53.9026 53.018C57.75 53.7378 61.5982 50.4231 62.4978 45.6143C63.3975 40.8056 61.0079 36.3239 57.1606 35.6041C53.3132 34.8843 49.465 38.199 48.5654 43.0077C47.6657 47.8165 50.0553 52.2982 53.9026 53.018Z" fill="#65471B"/>
<path d="M90.1517 63.4008C93.999 64.1206 97.8472 60.8059 98.7468 55.9971C99.6465 51.1884 97.2569 46.7067 93.4096 45.9869C89.5622 45.2671 85.714 48.5818 84.8144 53.3906C83.9147 58.1993 86.3043 62.681 90.1517 63.4008Z" fill="#65471B"/>
<path d="M54.4555 125.454C54.4555 125.454 58.8545 124.883 59.9693 121.899C61.1326 118.818 58.6394 117.69 58.6394 117.69C58.6394 117.69 62.1796 117.647 63.3254 113.898C64.4039 110.364 61.3388 108.902 61.3388 108.902C61.3388 108.902 64.764 108.186 65.6134 104.48C66.3261 101.359 63.2274 99.1883 63.2274 99.1883C63.2274 99.1883 80.4919 98.2755 82.2636 98.1998C84.0288 98.1229 86.9681 96.9933 86.807 93.3021C86.6531 89.6089 83.5457 88.8987 81.859 88.9733C80.169 89.0473 58.7902 89.9708 51.4145 90.2942L46.4923 90.5065C44.6441 90.5917 43.9863 89.6645 45.4819 88.5803C47.476 87.1347 48.9051 85.3901 49.879 82.2336C50.9039 78.9136 50.5371 74.5088 50.1824 72.7595C49.5212 69.5109 47.8991 66.7373 45.6626 65.4707C42.1744 63.4948 39.0896 65.3301 39.6502 69.6422C40.4932 76.0905 38.2621 80.8338 34.2865 83.2048C24.9352 88.7739 20.258 93.1172 20.7324 104.328C21.2542 116.556 31.4774 126.275 43.7049 125.754L54.4555 125.454Z" fill="#F19020"/>
<path d="M45.9582 26.1519C45.4745 25.7629 45.1022 25.2318 44.9211 24.6041C44.4755 23.0686 45.3585 21.5407 46.8914 21.1998C61.9993 17.8137 72.1569 25.7807 72.5817 26.1215C73.8595 27.1443 74.1167 28.9432 73.1557 30.1443C72.1992 31.3395 70.395 31.4804 69.1153 30.4674C68.7507 30.1854 60.7097 24.0361 48.5058 26.7711C47.5964 26.9708 46.6605 26.7142 45.9582 26.1519ZM83.4395 45.8879C82.9882 45.4709 82.6509 44.9158 82.5128 44.2759C82.1709 42.7122 83.1568 41.2511 84.7118 41.0093C100.016 38.6609 109.611 47.2962 110.01 47.666C111.211 48.7729 111.346 50.5864 110.31 51.7191C109.277 52.8492 107.462 52.8659 106.26 51.7689C105.91 51.4593 98.3141 44.7824 85.9475 46.6828C85.0196 46.818 84.1064 46.4944 83.4395 45.8879Z" fill="#65471B"/>
</svg>
