<svg width="141" height="150" viewBox="0 0 141 150" fill="none" xmlns="http://www.w3.org/2000/svg">
<g filter="url(#filter0_d_431_2088)">
<path d="M85.7816 47.0788C81.5377 64.1012 64.2868 74.4669 47.2643 70.223C30.2381 65.9781 19.8762 48.7281 24.1201 31.7057C28.365 14.6795 45.6111 4.31664 62.6374 8.56151C79.6598 12.8054 90.0265 30.0525 85.7816 47.0788Z" fill="#FFCC4D"/>
<path d="M70.0375 43.4181C69.8258 43.0358 69.399 42.909 69.0205 43.1052C68.943 43.1453 61.2628 47.1065 53.5108 45.1738C45.778 43.246 40.837 36.138 40.7873 36.0663C40.5434 35.7149 40.1079 35.6309 39.7425 35.8652C39.3785 36.1019 39.1881 36.5948 39.2886 37.0373C39.3934 37.5035 41.9898 48.4416 52.0695 50.9546C62.1492 53.4676 69.5786 45.0291 69.8881 44.6662C70.185 44.3207 70.2478 43.798 70.0375 43.4181Z" fill="#664500"/>
<path d="M42.6382 50.965L40.7387 45.9498C40.7387 45.9498 40.1089 44.0183 38.1759 44.6457C36.2454 45.2717 36.8747 47.2051 36.8747 47.2051L38.6385 54.5627C38.6385 54.5627 38.547 56.1117 36.9133 53.9463C36.2008 53.0032 36.612 53.5376 36.612 53.5376L35.9376 52.6306L27.5225 41.3061C27.5225 41.3061 26.5157 39.5242 24.8837 40.7342C23.255 41.947 24.6691 43.4253 24.6691 43.4253L32.6262 54.1403C32.3373 54.3139 31.4409 54.9377 31.1516 55.1296L22.6343 43.6732C22.6343 43.6732 21.626 41.8889 19.9979 43.0998C18.3654 44.3117 19.7814 45.7905 19.7814 45.7905L28.2938 57.2497C28.0281 57.47 27.3657 57.9926 27.1144 58.2124L19.7705 48.3297C19.7705 48.3297 18.7618 46.5473 17.1336 47.7583C15.4992 48.9697 16.9167 50.4509 16.9167 50.4509L24.7224 60.9603C24.5135 61.2725 23.7126 62.0307 23.5384 62.3434L17.9097 54.7755C17.9097 54.7755 16.9048 52.9858 15.2752 54.2026C13.6427 55.4145 15.0588 56.8932 15.0588 56.8932L24.1468 69.1223L24.7513 69.9402C28.7665 75.3437 36.4043 76.4701 41.8078 72.455C46.7601 68.7715 48.1208 62.0496 45.2217 56.7913C44.1927 54.9343 43.3952 52.9528 42.6382 50.965ZM83.0349 71.098C82.1672 69.2586 80.4398 70.3671 80.4398 70.3671L71.9171 74.4069C71.9101 74.049 71.5593 73.0017 71.521 72.6299L83.3468 67.0148C83.3468 67.0148 85.2937 66.3725 84.4212 64.536C83.552 62.7025 81.8246 63.8027 81.8246 63.8027L70.7009 69.0811C70.5827 68.7671 70.2411 67.9943 70.1114 67.6775L83.007 61.5555C83.007 61.5555 84.9535 60.9151 84.081 59.0786C83.2119 57.2451 81.4858 58.3477 81.4858 58.3477L68.5854 64.4644C68.4219 64.1596 67.9232 63.1879 67.7477 62.8986L79.8036 57.1731C79.8036 57.1731 81.7443 56.5312 80.8776 54.6962C80.0046 52.8617 78.2791 53.9624 78.2791 53.9624L65.5327 60.0111L64.5133 60.4958C64.5133 60.4958 66.825 59.3509 64.0554 60.7152C61.2839 62.0791 62.2428 60.4496 62.2428 60.4496L67.2541 54.7811C67.2541 54.7811 68.7174 53.3694 67.3066 51.9105C65.8925 50.4486 64.4316 51.8588 64.4316 51.8588L60.402 55.3958C58.7985 56.7951 57.1642 58.1703 55.3814 59.3284C50.3507 62.6117 48.3971 69.1837 51.0445 74.7619C53.9287 80.8433 61.2033 83.4347 67.2852 80.5486L68.2049 80.1106L81.9701 73.5792C81.961 73.5749 83.9055 72.934 83.0349 71.098Z" fill="#F4900C"/>
<path d="M76.0089 34.3753C75.9692 34.1157 74.9658 28.01 70.0792 26.7916C65.1963 25.5743 61.4441 30.4944 61.2872 30.705C61.0427 31.0288 61.0382 31.4738 61.2667 31.7969C61.4923 32.1151 61.9066 32.2266 62.2687 32.0713C62.2923 32.0587 64.7437 31.0182 68.7749 32.0232C72.7809 33.022 74.4599 35.0718 74.4989 35.1204C74.6151 35.2701 74.7741 35.3712 74.9475 35.4144C75.1306 35.46 75.328 35.4397 75.5095 35.3519C75.8663 35.1768 76.0727 34.776 76.0089 34.3753ZM54.8127 29.0908C54.7712 28.8307 53.7697 22.7255 48.883 21.5072C44.0002 20.2898 40.248 25.2099 40.0892 25.42C39.8466 25.7443 39.8402 26.1889 40.0706 26.5124C40.2981 26.8311 40.7124 26.9426 41.0726 26.7868C41.0981 26.7747 43.5476 25.7337 47.5787 26.7387C51.5867 27.738 53.2637 29.7873 53.3008 29.8354C53.4189 29.9856 53.576 30.0862 53.7495 30.1294C53.9325 30.1751 54.13 30.1547 54.3115 30.067C54.6702 29.8924 54.8747 29.491 54.8127 29.0908Z" fill="#664500"/>
<path d="M37.2611 54.3813C37.2611 54.3813 30.6725 59.5214 34.6099 68.9886C34.8815 69.6397 35.985 69.6303 35.7041 68.8767C35.3973 68.0552 32.2768 60.0483 38.3236 55.0862C38.3236 55.0862 37.612 54.8126 37.2611 54.3813ZM63.3874 61.0955C63.3874 61.0955 66.7938 68.7275 58.8709 75.2378C58.3255 75.6851 57.3556 75.1588 57.9573 74.6253C58.6139 74.044 65.128 68.4391 62.1183 61.2192C62.1159 61.2206 62.8746 61.3136 63.3874 61.0955Z" fill="#B55005"/>
</g>
<defs>
<filter id="filter0_d_431_2088" x="0.488281" y="7.61133" width="140.244" height="142.117" filterUnits="userSpaceOnUse" color-interpolation-filters="sRGB">
<feFlood flood-opacity="0" result="BackgroundImageFix"/>
<feColorMatrix in="SourceAlpha" type="matrix" values="0 0 0 0 0 0 0 0 0 0 0 0 0 0 0 0 0 0 127 0" result="hardAlpha"/>
<feOffset dx="20" dy="34"/>
<feGaussianBlur stdDeviation="17"/>
<feComposite in2="hardAlpha" operator="out"/>
<feColorMatrix type="matrix" values="0 0 0 0 0 0 0 0 0 0 0 0 0 0 0 0 0 0 0.12 0"/>
<feBlend mode="normal" in2="BackgroundImageFix" result="effect1_dropShadow_431_2088"/>
<feBlend mode="normal" in="SourceGraphic" in2="effect1_dropShadow_431_2088" result="shape"/>
</filter>
</defs>
</svg>
