<svg width="189" height="188" viewBox="0 0 189 188" fill="none" xmlns="http://www.w3.org/2000/svg">
<path d="M188.488 93.7021L178.741 102.585L186.449 113.265L175.077 119.935L180.366 131.998L167.854 136.111L170.515 149.038L157.416 150.455L157.347 163.658L144.213 162.31L141.448 175.236L128.867 171.192L123.475 183.22L112.035 176.688L104.223 187.299L94.3728 178.52L84.557 187.299L76.7457 176.688L65.3054 183.22L59.879 171.192L47.298 175.236L44.533 162.31L31.399 163.658L31.3645 150.455L18.2306 149.038L20.9264 136.111L8.38012 131.998L13.7028 119.935L2.297 113.265L10.0391 102.585L0.257812 93.7021L10.0391 84.8195L2.297 74.1395L13.7028 67.5034L8.38012 55.4063L20.9264 51.2933L18.2306 38.3668L31.3645 36.9497L31.399 23.7811L44.533 25.0946L47.3326 12.2025L59.879 16.2119L65.3054 4.18392L76.7457 10.7509L84.557 0.105469L94.3728 8.88449L104.223 0.105469L112.035 10.7509L123.475 4.18392L128.867 16.2119L141.448 12.2025L144.247 25.0946L157.347 23.7811L157.416 36.9497L170.515 38.4013L167.854 51.2933L180.366 55.4063L175.077 67.5034L186.449 74.1395L178.741 84.8195L188.488 93.7021Z" fill="url(#paint0_linear_701_6292)"/>
<path d="M40.9979 119.281L50.4673 116.743C52.6518 116.158 54.4167 116.191 55.7619 116.842C57.1072 117.494 58.0055 118.662 58.4569 120.347C58.7099 121.291 58.7819 122.115 58.6728 122.819C58.5588 123.504 58.3688 124.091 58.1027 124.579C57.8317 125.048 57.5333 125.416 57.2077 125.682C56.9006 125.943 56.6712 126.123 56.5195 126.223L56.5343 126.279C56.8405 126.236 57.18 126.245 57.5529 126.303C57.9443 126.357 58.3328 126.511 58.7183 126.765C59.0988 127 59.4511 127.352 59.7751 127.821C60.1177 128.285 60.3931 128.906 60.6015 129.683C60.914 130.85 61.2825 131.892 61.7071 132.81C62.1452 133.704 62.6039 134.306 63.0833 134.614L59.3622 135.611C58.989 135.254 58.7051 134.824 58.5107 134.321C58.3348 133.813 58.1823 133.318 58.0533 132.836C57.8103 131.929 57.5464 131.167 57.2617 130.548C56.972 129.912 56.6221 129.42 56.2118 129.074C55.7965 128.709 55.3024 128.494 54.7295 128.429C54.1751 128.359 53.4998 128.431 52.7038 128.644L47.5942 130.014L49.7818 138.178L46.3106 139.108L40.9979 119.281ZM46.8873 127.376L52.5801 125.85C53.6908 125.553 54.4637 125.068 54.8987 124.396C55.3288 123.705 55.4024 122.832 55.1197 121.777C54.951 121.147 54.722 120.663 54.4327 120.324C54.1385 119.966 53.795 119.721 53.4022 119.588C53.028 119.45 52.618 119.401 52.1724 119.441C51.7453 119.476 51.3095 119.553 50.8652 119.672L45.2281 121.183L46.8873 127.376ZM60.5504 114.042L74.8238 110.217L75.6274 113.216L64.8251 116.111L66.2166 121.303L76.2135 118.625L76.9725 121.457L66.9755 124.136L68.5306 129.94L79.5273 126.993L80.3309 129.992L65.8631 133.869L60.5504 114.042ZM77.9863 109.37L82.8737 108.06L92.5036 122.117L92.5592 122.102L93.7315 105.151L98.5633 103.856L103.876 123.683L100.571 124.569L96.4716 109.268L96.4161 109.283L95.0176 126.057L92.1574 126.823L82.5592 112.996L82.5037 113.011L86.6035 128.311L83.299 129.197L77.9863 109.37ZM111.794 102.841C110.739 103.123 109.879 103.582 109.216 104.216C108.571 104.845 108.105 105.585 107.817 106.436C107.524 107.269 107.379 108.171 107.381 109.142C107.402 110.109 107.539 111.064 107.792 112.009C108.045 112.953 108.404 113.849 108.869 114.696C109.353 115.539 109.932 116.257 110.607 116.85C111.277 117.424 112.048 117.823 112.921 118.045C113.813 118.263 114.787 118.23 115.842 117.947C116.897 117.664 117.747 117.209 118.392 116.579C119.055 115.945 119.534 115.212 119.826 114.379C120.114 113.528 120.248 112.62 120.227 111.653C120.224 110.681 120.097 109.723 119.844 108.779C119.591 107.835 119.222 106.942 118.739 106.099C118.274 105.251 117.706 104.54 117.036 103.966C116.361 103.373 115.578 102.968 114.687 102.75C113.813 102.528 112.849 102.558 111.794 102.841ZM111.035 100.008C112.516 99.6114 113.914 99.5344 115.229 99.7773C116.563 100.015 117.763 100.497 118.831 101.223C119.899 101.949 120.814 102.884 121.577 104.029C122.359 105.169 122.938 106.442 123.315 107.849C123.697 109.275 123.834 110.676 123.727 112.054C123.639 113.427 123.314 114.695 122.752 115.857C122.191 117.02 121.392 118.037 120.356 118.91C119.333 119.76 118.082 120.383 116.601 120.78C115.12 121.177 113.715 121.265 112.386 121.046C111.071 120.803 109.88 120.319 108.812 119.593C107.745 118.867 106.82 117.934 106.038 116.794C105.275 115.649 104.703 114.364 104.321 112.939C103.944 111.532 103.799 110.142 103.888 108.769C103.995 107.391 104.329 106.121 104.891 104.958C105.452 103.796 106.242 102.781 107.259 101.913C108.295 101.04 109.554 100.405 111.035 100.008ZM121.929 97.595L137.98 93.2943L138.784 96.2933L132.48 97.9824L136.989 114.811L133.518 115.741L129.009 98.9125L122.733 100.594L121.929 97.595ZM140.279 92.6784L154.552 88.8538L155.356 91.8529L144.554 94.7474L145.945 99.9402L155.942 97.2615L156.701 100.094L146.704 102.773L148.259 108.576L159.256 105.63L160.059 108.629L145.591 112.506L140.279 92.6784Z" fill="white"/>
<path d="M28.6801 77.9365L48.2376 72.6961L49.3856 76.9805L34.7869 80.8922L36.7746 88.3106L49.5882 84.8772L50.6724 88.9236L37.8589 92.357L41.2285 104.933L36.2697 106.261L28.6801 77.9365ZM51.8783 71.7205L56.8371 70.3918L61.2591 86.8948C61.5142 87.8468 61.8125 88.8015 62.1541 89.7588C62.522 90.709 63.0239 91.5241 63.6596 92.2041C64.3148 92.8506 65.146 93.3082 66.1534 93.5768C67.1872 93.8384 68.5108 93.753 70.1241 93.3208C71.7373 92.8885 72.913 92.3042 73.6511 91.5678C74.4157 90.8244 74.9068 90.0125 75.1244 89.1322C75.3614 88.2183 75.3885 87.2614 75.2056 86.2616C75.0492 85.2548 74.8435 84.2753 74.5884 83.3232L70.1664 66.8203L75.1252 65.4916L79.983 83.621C80.4719 85.4458 80.6194 87.107 80.4255 88.6046C80.2315 90.1023 79.7428 91.4521 78.9594 92.6541C78.1953 93.8226 77.1595 94.8229 75.8518 95.6552C74.5441 96.4875 73.0176 97.1375 71.2721 97.6052C69.5266 98.0729 67.8795 98.2733 66.3309 98.2063C64.7823 98.1394 63.3718 97.7945 62.0994 97.1717C60.8464 96.5153 59.7615 95.5872 58.8447 94.3872C57.9279 93.1872 57.225 91.6748 56.7361 89.85L51.8783 71.7205ZM80.8251 63.9643L85.7839 62.6356L92.2255 86.6759L106.626 82.8173L107.774 87.1017L88.4147 92.289L80.8251 63.9643ZM103.605 57.8605L108.563 56.5318L115.005 80.5721L129.405 76.7136L130.553 80.998L111.194 86.1853L103.605 57.8605ZM133.96 68.18L118.715 53.8118L124.467 52.2705L135.366 62.956L139.343 48.2844L144.897 46.7962L138.918 66.8513L141.895 77.959L136.936 79.2878L133.96 68.18Z" fill="white"/>
<defs>
<linearGradient id="paint0_linear_701_6292" x1="98.0108" y1="18.5841" x2="89.1809" y2="201.361" gradientUnits="userSpaceOnUse">
<stop stop-color="#59CDFF"/>
<stop offset="1" stop-color="#27BEFF"/>
</linearGradient>
</defs>
</svg>
